<svg xmlns="http://www.w3.org/2000/svg" width="6" height="12" viewBox="0 0 6 12"><defs><style>.cls-1{fill:#1e1f26;fill-rule:evenodd}</style></defs><path id="Shape_6_copy_2" data-name="Shape 6 copy 2" class="cls-1" d="M993.987 1548.82a1.411 1.411 0 1 0-1.469-1.41 1.441 1.441 0 0 0 1.469 1.41zm2.993 4.22l-1.19-3.54a.519.519 0 0 0-.484-.34h-2.638a.519.519 0 0 0-.483.34l-1.19 3.54a.326.326 0 0 0 .04.3.337.337 0 0 0 .277.12h.3a.535.535 0 0 0 .484-.34l.338-1.01v5.24a.665.665 0 0 0 .678.65h.048a.664.664 0 0 0 .678-.65v-3.42h.289v3.42a.664.664 0 0 0 .678.65h.047a.664.664 0 0 0 .678-.65v-5.24l.34 1.01a.533.533 0 0 0 .483.34h.305a.337.337 0 0 0 .277-.12.323.323 0 0 0 .045-.3z" transform="translate(-991 -1546)"/></svg>