<svg xmlns="http://www.w3.org/2000/svg" width="7" height="18" viewBox="0 0 7 18"><defs><style>.cls-1{fill:#1e1f26;fill-rule:evenodd}</style></defs><path id="Shape_5_copy_2" data-name="Shape 5 copy 2" class="cls-1" d="M965.489 1544.69a2.074 2.074 0 0 0-1.419-.45h-3.1a2.327 2.327 0 0 0-1.419.41 1.489 1.489 0 0 0-.549 1.28v4.65a.6.6 0 0 0 .889.54.577.577 0 0 0 .284-.54v-4.24h.378v10.8a.78.78 0 1 0 1.552 0v-5.33h.795v5.33a.78.78 0 1 0 1.551 0v-10.8h.379v3.95a.753.753 0 0 0 .284.66.461.461 0 0 0 .586 0 .735.735 0 0 0 .3-.66v-4.32a1.622 1.622 0 0 0-.511-1.28zm-3.027-1.19a1.471 1.471 0 0 0 1.135-.52 1.777 1.777 0 0 0 .473-1.25 1.756 1.756 0 0 0-.473-1.22 1.518 1.518 0 0 0-2.27 0 1.787 1.787 0 0 0-.473 1.24 1.746 1.746 0 0 0 .473 1.23 1.471 1.471 0 0 0 1.135.52z" transform="translate(-959 -1540)"/></svg>