<svg xmlns="http://www.w3.org/2000/svg" width="33" height="25" viewBox="0 0 33 25"><defs><style>.cls-1{fill:#fff;fill-rule:evenodd}</style></defs><path class="cls-1" d="M24.86 15.178h2.38c.07 0 .23-.022.29-.022a1.065 1.065 0 0 0 .84-1.076 1.1 1.1 0 0 0-.84-1.076 1.114 1.114 0 0 0-.29-.023h-2.38v2.2zM26.97 0a4.148 4.148 0 0 0-4.13 4.167v4.327h5.83a2.5 2.5 0 0 1 .41.022c1.31.069 2.29.756 2.29 1.946a1.943 1.943 0 0 1-1.89 1.9v.045c1.34.092 2.36.847 2.36 2.015 0 1.259-1.13 2.083-2.63 2.083h-6.39v8.471h6.05A4.148 4.148 0 0 0 33 20.809V0h-6.03zm1.11 10.737a.974.974 0 0 0-.84-.984c-.05 0-.16-.023-.23-.023h-2.15v2.014h2.15a.657.657 0 0 0 .23-.022.975.975 0 0 0 .84-.985zM.02 4.167v10.279a8.123 8.123 0 0 0 3.56.939 1.983 1.983 0 0 0 2.2-2.061V8.471h3.54v4.83c0 1.877-1.16 3.411-5.08 3.411A17.274 17.274 0 0 1 0 16.186v8.768h6.06a4.146 4.146 0 0 0 4.12-4.167V0H4.15A4.148 4.148 0 0 0 .02 4.167zm11.41 0v5.448c1.04-.893 2.86-1.465 5.78-1.328a18.3 18.3 0 0 1 3.25.5v1.763a7.822 7.822 0 0 0-3.13-.916c-2.23-.16-3.56.939-3.56 2.862 0 1.946 1.33 3.045 3.56 2.862a8.21 8.21 0 0 0 3.13-.916v1.763a17.863 17.863 0 0 1-3.25.5c-2.92.138-4.74-.435-5.78-1.327V25h6.06a4.147 4.147 0 0 0 4.12-4.167V0h-6.05a4.148 4.148 0 0 0-4.13 4.167z"/></svg>